name C:\Users\u0101727\Documents\MyRepositories\upper-imu-dc\Results\main_tracking\Case_64\kinematics.mot
datacolumns 10
datarows 28
range 2.00000000 2.27000000
endheader 
time	clav_prot	clav_elev	scapula_abduction	scapula_elevation	scapula_upward_rot	scapula_winging	plane_elv	shoulder_elv	axial_rot	
          2.00000000	        -24.90610889	          4.08046290	          9.91450127	         -4.65515351	         52.18543785	         -4.98039836	         61.34136567	         71.11968948	        -20.96244580	
          2.01000000	        -25.09884879	          4.16890065	          9.87621757	         -4.62827953	         52.57622747	         -5.04974988	         61.12382044	         71.43424581	        -20.78339533	
          2.02000000	        -25.28858708	          4.24992578	          9.83801568	         -4.60511789	         52.95815601	         -5.11604366	         60.90459344	         71.74800379	        -20.59120050	
          2.03000000	        -25.47502158	          4.32380032	          9.80068327	         -4.58553587	         53.33163641	         -5.17939192	         60.68432224	         72.06084222	        -20.38777478	
          2.04000000	        -25.65799444	          4.39087494	          9.76483572	         -4.56934995	         53.69720595	         -5.23993750	         60.46357153	         72.37259204	        -20.17533814	
          2.05000000	        -25.83736374	          4.45159718	          9.73113133	         -4.55631051	         54.05551272	         -5.29784743	         60.24282001	         72.68303594	        -19.95633708	
          2.06000000	        -26.01289534	          4.50651914	          9.70044459	         -4.54608779	         54.40729556	         -5.35330353	         60.02245108	         72.99191580	        -19.73334509	
          2.07000000	        -26.18421729	          4.55629548	          9.67392467	         -4.53826846	         54.75335644	         -5.40649285	         59.80275249	         73.29894885	        -19.50894298	
          2.08000000	        -26.35085786	          4.60166429	          9.65290358	         -4.53236929	         55.09452620	         -5.45760074	         59.58392681	         73.60385076	        -19.28558367	
          2.09000000	        -26.51236246	          4.64340857	          9.63866663	         -4.52786989	         55.43162717	         -5.50680878	         59.36611097	         73.90636227	        -19.06545039	
          2.10000000	        -26.66845941	          4.68230269	          9.63214121	         -4.52425960	         55.76543737	         -5.55429835	         59.14940024	         74.20627434	        -18.85032272	
          2.11000000	        -26.81922667	          4.71905509	          9.63359083	         -4.52108796	         56.09666171	         -5.60025858	         58.93387045	         74.50344711	        -18.64146683	
          2.12000000	        -26.96520538	          4.75426296	          9.64241029	         -4.51800428	         56.42591464	         -5.64489612	         58.71959199	         74.79781900	        -18.43956767	
          2.13000000	        -27.10741863	          4.78839276	          9.65709359	         -4.51477358	         56.75371584	         -5.68844319	         58.50663050	         75.08940485	        -18.24471633	
          2.14000000	        -27.24728293	          4.82179227	          9.67539341	         -4.51126406	         57.08049666	         -5.73116059	         58.29503331	         75.37828549	        -18.05645772	
          2.15000000	        -27.38643477	          4.85472810	          9.69463001	         -4.50741103	         57.40661262	         -5.77333407	         58.08480508	         75.66459328	        -17.87389101	
          2.16000000	        -27.52651812	          4.88743513	          9.71206720	         -4.50316980	         57.73235658	         -5.81526434	         57.87587921	         75.94849772	        -17.69580216	
          2.17000000	        -27.66898293	          4.92016363	          9.72526736	         -4.49847036	         58.05796957	         -5.85725290	         57.66809330	         76.23019310	        -17.52080248	
          2.18000000	        -27.81493182	          4.95321474	          9.73236155	         -4.49318308	         58.38364876	         -5.89958678	         57.46117507	         76.50988822	        -17.34745314	
          2.19000000	        -27.96503002	          4.98696185	          9.73220917	         -4.48709800	         58.70955363	         -5.94252487	         57.25474256	         76.78779647	        -17.17436736	
          2.20000000	        -28.11947147	          5.02186144	          9.72446008	         -4.47991508	         59.03581176	         -5.98628709	         57.04831834	         77.06412529	        -17.00029075	
          2.21000000	        -28.27798397	          5.05845827	          9.70954825	         -4.47124081	         59.36252405	         -6.03104638	         56.84135428	         77.33906518	        -16.82416424	
          2.22000000	        -28.43986560	          5.09738517	          9.68862893	         -4.46059058	         59.68976755	         -6.07692347	         56.63326325	         77.61278027	        -16.64517102	
          2.23000000	        -28.60406274	          5.13935009	          9.66344080	         -4.44740258	         60.01759304	         -6.12398514	         56.42345640	         77.88540299	        -16.46276434	
          2.24000000	        -28.76930456	          5.18509978	          9.63606776	         -4.43107192	         60.34601585	         -6.17224760	         56.21138492	         78.15703418	        -16.27666999	
          2.25000000	        -28.93429112	          5.23535563	          9.60860722	         -4.41100794	         60.67499990	         -6.22168576	         55.99658366	         78.42774788	        -16.08686103	
          2.26000000	        -29.09790622	          5.29072822	          9.58279622	         -4.38670844	         61.00443770	         -6.27224747	         55.77871056	         78.69759798	        -15.89350861	
          2.27000000	        -29.25941168	          5.35162651	          9.55967266	         -4.35783687	         61.33413081	         -6.32387021	         55.55757574	         78.96662217	        -15.69691857	
